<svg width="174" height="43" viewBox="0 0 174 43" fill="none" xmlns="http://www.w3.org/2000/svg">
<rect width="174" height="43" rx="9.6875" fill="#0213B0"/>
<path d="M21.4579 32C21.1059 32 20.8819 31.776 20.8819 31.424V13.664C20.8819 13.408 20.7859 13.248 20.4019 13.248C19.7299 13.248 19.1219 13.6 18.5139 14.048C18.1939 14.272 17.8739 14.304 17.8739 13.888V10.4C17.8739 10.08 18.0339 9.92 18.3539 9.92H27.2819C27.6019 9.92 27.7619 10.08 27.7619 10.4V13.888C27.7619 14.304 27.4419 14.272 27.1219 14.048C26.5139 13.6 25.9059 13.248 25.2339 13.248C24.8499 13.248 24.7539 13.408 24.7539 13.664V31.424C24.7539 31.776 24.5299 32 24.1779 32H21.4579ZM31.2944 32.32C29.3744 32.32 28.2864 30.4 28.2864 27.488C28.2864 24.288 29.2464 22.624 31.7424 20.992L32.7664 20.32C33.5984 19.776 33.9504 19.296 33.9504 18.656C33.9504 17.952 33.4384 17.504 32.6384 17.504C31.4544 17.504 30.4944 18.56 29.7264 19.424C29.6304 19.584 29.4704 19.68 29.3744 19.68C29.1824 19.68 29.0864 19.552 29.0864 19.328V16.32C29.0864 15.968 29.0864 15.744 29.3744 15.456C30.1424 14.688 31.5184 14.08 33.1184 14.08C36.5424 14.08 37.5024 16.288 37.5024 18.368V31.424C37.5024 31.776 37.3104 32 36.9264 32H34.5584C34.2384 32 34.0464 31.808 34.0464 31.488V30.624C34.0464 30.496 34.0144 30.432 33.9184 30.432C33.8224 30.432 33.7584 30.496 33.6944 30.624C33.2784 31.456 32.6064 32.32 31.2944 32.32ZM32.9264 29.184C33.6624 29.184 33.8864 28.32 33.8864 26.976V23.104C33.8864 22.848 33.8224 22.72 33.6624 22.72C33.5984 22.72 33.5024 22.752 33.4064 22.848L33.0224 23.2C32.2544 23.904 31.8384 24.864 31.8384 26.72C31.8384 28.448 32.2544 29.184 32.9264 29.184ZM33.0224 13.44C32.7664 13.44 32.6064 13.28 32.6064 12.992C32.6064 12.704 32.7024 12.544 33.0224 12.416L33.5344 12.192C33.7264 12.096 33.8864 12 33.8864 11.776C33.8864 11.552 33.6944 11.456 33.3424 11.456C32.9264 11.456 32.6384 11.68 32.3504 11.968C32.1904 12.128 31.9664 12.064 31.9664 11.872V11.296C31.9664 11.04 31.9984 10.88 32.2544 10.72C32.4784 10.56 32.7984 10.432 33.3424 10.432C34.4304 10.432 35.0384 10.976 35.0384 11.744C35.0384 12.352 34.6224 12.704 34.1104 12.928C33.7904 13.056 33.6304 13.12 33.5664 13.28C33.5024 13.376 33.4704 13.44 33.3104 13.44H33.0224ZM41.0354 32C40.7154 32 40.5234 31.808 40.5234 31.488V19.584C40.5234 16.768 40.4274 16.16 40.2034 14.816C40.1714 14.56 40.2994 14.4 40.5234 14.4H43.7554C44.0754 14.4 44.2674 14.56 44.2674 14.912V31.488C44.2674 31.808 44.0754 32 43.7554 32H41.0354ZM42.3794 13.568C41.3554 13.568 40.2994 13.056 40.2994 11.904C40.2994 10.72 41.3554 10.24 42.3794 10.24C43.4034 10.24 44.4594 10.72 44.4594 11.904C44.4594 13.056 43.4034 13.568 42.3794 13.568ZM59.0572 32.32C57.7772 32.32 57.2012 31.552 56.8172 30.944C56.6892 30.72 56.6572 30.624 56.5612 30.624C56.4332 30.624 56.4012 30.72 56.4012 30.912V31.488C56.4012 31.84 56.2412 32 55.9212 32H53.3292C53.0092 32 52.8172 31.808 52.8172 31.488V15.104C52.8172 12.288 52.7212 11.68 52.4652 10.336C52.4012 10.08 52.5612 9.92 52.8172 9.92H55.8892C56.2092 9.92 56.4012 10.08 56.4012 10.432V15.52C56.4012 15.648 56.4332 15.744 56.5292 15.744C56.6252 15.744 56.6572 15.68 56.8172 15.424C57.2012 14.816 57.7772 14.08 59.0572 14.08C61.3612 14.08 62.6732 16.704 62.6732 23.2C62.6732 29.696 61.3612 32.32 59.0572 32.32ZM57.6172 29.12C58.3532 29.12 58.8332 28.16 58.8332 23.2C58.8332 18.208 58.3532 17.248 57.6172 17.248C56.8812 17.248 56.4012 18.208 56.4012 23.2C56.4012 28.16 56.8812 29.12 57.6172 29.12ZM67.9132 32.32C65.9932 32.32 64.9052 30.4 64.9052 27.488C64.9052 24.288 65.8652 22.624 68.3612 20.992L69.3852 20.32C70.2172 19.776 70.5692 19.296 70.5692 18.656C70.5692 17.952 70.0572 17.504 69.2572 17.504C68.0732 17.504 67.1132 18.56 66.3452 19.424C66.2492 19.584 66.0892 19.68 65.9932 19.68C65.8012 19.68 65.7052 19.552 65.7052 19.328V16.32C65.7052 15.968 65.7052 15.744 65.9932 15.456C66.7612 14.688 68.1372 14.08 69.7372 14.08C73.1612 14.08 74.1212 16.288 74.1212 18.368V31.424C74.1212 31.776 73.9292 32 73.5452 32H71.1772C70.8572 32 70.6652 31.808 70.6652 31.488V30.624C70.6652 30.496 70.6332 30.432 70.5372 30.432C70.4412 30.432 70.3772 30.496 70.3132 30.624C69.8972 31.456 69.2252 32.32 67.9132 32.32ZM69.5452 29.184C70.2812 29.184 70.5052 28.32 70.5052 26.976V23.104C70.5052 22.848 70.4412 22.72 70.2812 22.72C70.2172 22.72 70.1212 22.752 70.0252 22.848L69.6412 23.2C68.8732 23.904 68.4572 24.864 68.4572 26.72C68.4572 28.448 68.8732 29.184 69.5452 29.184ZM67.5932 13.408C67.3692 13.408 67.3052 13.312 67.3052 13.12V12.704C67.3052 12.544 67.3692 12.48 67.5292 12.48C68.8412 12.448 70.4412 12.192 71.9132 11.616C72.1052 11.552 72.2332 11.648 72.2332 11.808V12.288C72.2332 12.544 72.1692 12.672 71.8812 12.8C70.4732 13.344 68.5852 13.44 67.5932 13.408ZM81.8782 32.32C78.3262 32.32 76.7902 29.088 76.7902 23.2C76.7902 17.312 78.3262 14.08 81.8782 14.08C85.4302 14.08 86.9342 17.312 86.9342 23.2C86.9342 29.088 85.4302 32.32 81.8782 32.32ZM81.8782 29.28C82.7422 29.28 83.0942 27.52 83.0942 23.2C83.0942 18.848 82.7422 17.12 81.8782 17.12C80.9822 17.12 80.6302 18.848 80.6302 23.2C80.6302 27.52 80.9822 29.28 81.8782 29.28ZM100.019 32.32C96.8514 32.32 94.7714 29.472 94.7714 23.2C94.7714 16.928 96.8514 14.08 100.019 14.08C100.787 14.08 101.427 14.24 101.811 14.496C102.163 14.72 102.291 15.008 102.291 15.456V18.048C102.291 18.464 101.971 18.464 101.747 18.208C101.427 17.824 101.171 17.568 100.691 17.568C99.4114 17.568 98.6114 19.328 98.6114 23.2C98.6114 27.04 99.4114 28.8 100.691 28.8C101.171 28.8 101.459 28.576 101.779 28.192C101.971 27.936 102.291 27.904 102.291 28.32V30.944C102.291 31.392 102.163 31.68 101.811 31.904C101.427 32.128 100.787 32.32 100.019 32.32ZM107.469 32.32C105.549 32.32 104.461 30.4 104.461 27.488C104.461 24.288 105.421 22.624 107.917 20.992L108.941 20.32C109.773 19.776 110.125 19.296 110.125 18.656C110.125 17.952 109.613 17.504 108.813 17.504C107.629 17.504 106.669 18.56 105.901 19.424C105.805 19.584 105.645 19.68 105.549 19.68C105.357 19.68 105.261 19.552 105.261 19.328V16.32C105.261 15.968 105.261 15.744 105.549 15.456C106.317 14.688 107.693 14.08 109.293 14.08C112.717 14.08 113.677 16.288 113.677 18.368V31.424C113.677 31.776 113.485 32 113.101 32H110.733C110.413 32 110.221 31.808 110.221 31.488V30.624C110.221 30.496 110.189 30.432 110.093 30.432C109.997 30.432 109.933 30.496 109.869 30.624C109.453 31.456 108.781 32.32 107.469 32.32ZM109.101 29.184C109.837 29.184 110.061 28.32 110.061 26.976V23.104C110.061 22.848 109.997 22.72 109.837 22.72C109.773 22.72 109.677 22.752 109.581 22.848L109.197 23.2C108.429 23.904 108.013 24.864 108.013 26.72C108.013 28.448 108.429 29.184 109.101 29.184ZM107.149 13.408C106.925 13.408 106.861 13.312 106.861 13.12V12.704C106.861 12.544 106.925 12.48 107.085 12.48C108.397 12.448 109.997 12.192 111.469 11.616C111.661 11.552 111.789 11.648 111.789 11.808V12.288C111.789 12.544 111.725 12.672 111.437 12.8C110.029 13.344 108.141 13.44 107.149 13.408ZM121.434 32.32C117.882 32.32 116.346 29.088 116.346 23.2C116.346 17.312 117.882 14.08 121.434 14.08C124.986 14.08 126.49 17.312 126.49 23.2C126.49 29.088 124.986 32.32 121.434 32.32ZM121.434 29.28C122.298 29.28 122.65 27.52 122.65 23.2C122.65 18.848 122.298 17.12 121.434 17.12C120.538 17.12 120.186 18.848 120.186 23.2C120.186 27.52 120.538 29.28 121.434 29.28Z" fill="#FFFFF1"/>
<path d="M136.5 30.3545H148.3" stroke="#FFFFF1" stroke-width="2.51875" stroke-linecap="round" stroke-linejoin="round"/>
<path d="M142.401 14.8545V25.3167M142.401 25.3167L146.826 20.7449M142.401 25.3167L137.976 20.7449" stroke="#FFFFF1" stroke-width="2.51875" stroke-linecap="round" stroke-linejoin="round"/>
</svg>
